<mxfile host="app.diagrams.net" agent="Mozilla/5.0 (Windows NT 10.0; Win64; x64) AppleWebKit/537.36 (KHTML, like Gecko) Chrome/134.0.0.0 Safari/537.36 Edg/134.0.0.0" version="26.1.1">
  <diagram id="C5RBs43oDa-KdzZeNtuy" name="Page-1">
    <mxGraphModel dx="1028" dy="609" grid="1" gridSize="12" guides="1" tooltips="1" connect="1" arrows="1" fold="1" page="1" pageScale="1" pageWidth="827" pageHeight="1169" background="light-dark(#00CCCC,#121212)" math="1" shadow="0">
      <root>
        <mxCell id="WIyWlLk6GJQsqaUBKTNV-0" />
        <mxCell id="WIyWlLk6GJQsqaUBKTNV-1" parent="WIyWlLk6GJQsqaUBKTNV-0" />
        <mxCell id="WIyWlLk6GJQsqaUBKTNV-2" value="" style="rounded=0;html=1;jettySize=auto;orthogonalLoop=1;fontSize=11;endArrow=block;endFill=0;endSize=8;strokeWidth=1;shadow=0;labelBackgroundColor=none;edgeStyle=orthogonalEdgeStyle;" parent="WIyWlLk6GJQsqaUBKTNV-1" edge="1">
          <mxGeometry relative="1" as="geometry">
            <mxPoint x="220" y="170" as="targetPoint" />
          </mxGeometry>
        </mxCell>
        <mxCell id="WIyWlLk6GJQsqaUBKTNV-4" value="Yes" style="rounded=0;html=1;jettySize=auto;orthogonalLoop=1;fontSize=11;endArrow=block;endFill=0;endSize=8;strokeWidth=1;shadow=0;labelBackgroundColor=none;edgeStyle=orthogonalEdgeStyle;" parent="WIyWlLk6GJQsqaUBKTNV-1" edge="1">
          <mxGeometry y="20" relative="1" as="geometry">
            <mxPoint as="offset" />
            <mxPoint x="220" y="250" as="sourcePoint" />
          </mxGeometry>
        </mxCell>
        <mxCell id="WIyWlLk6GJQsqaUBKTNV-5" value="No" style="edgeStyle=orthogonalEdgeStyle;rounded=0;html=1;jettySize=auto;orthogonalLoop=1;fontSize=11;endArrow=block;endFill=0;endSize=8;strokeWidth=1;shadow=0;labelBackgroundColor=none;" parent="WIyWlLk6GJQsqaUBKTNV-1" edge="1">
          <mxGeometry y="10" relative="1" as="geometry">
            <mxPoint as="offset" />
            <mxPoint x="270" y="210" as="sourcePoint" />
          </mxGeometry>
        </mxCell>
        <mxCell id="WIyWlLk6GJQsqaUBKTNV-8" value="No" style="rounded=0;html=1;jettySize=auto;orthogonalLoop=1;fontSize=11;endArrow=block;endFill=0;endSize=8;strokeWidth=1;shadow=0;labelBackgroundColor=none;edgeStyle=orthogonalEdgeStyle;" parent="WIyWlLk6GJQsqaUBKTNV-1" edge="1">
          <mxGeometry x="0.3333" y="20" relative="1" as="geometry">
            <mxPoint as="offset" />
            <mxPoint x="220" y="370" as="sourcePoint" />
          </mxGeometry>
        </mxCell>
        <mxCell id="WIyWlLk6GJQsqaUBKTNV-9" value="Yes" style="edgeStyle=orthogonalEdgeStyle;rounded=0;html=1;jettySize=auto;orthogonalLoop=1;fontSize=11;endArrow=block;endFill=0;endSize=8;strokeWidth=1;shadow=0;labelBackgroundColor=none;" parent="WIyWlLk6GJQsqaUBKTNV-1" edge="1">
          <mxGeometry y="10" relative="1" as="geometry">
            <mxPoint as="offset" />
            <mxPoint x="320" y="330" as="targetPoint" />
          </mxGeometry>
        </mxCell>
        <mxCell id="UrOnI7uU73F_u0JW5zdo-0" value="&lt;font face=&quot;Times New Roman&quot; style=&quot;font-size: 17px; color: rgb(255, 255, 51);&quot;&gt;Climate variable selection&lt;/font&gt;" style="swimlane;whiteSpace=wrap;html=1;startSize=24;fillStyle=auto;fillColor=#60a917;fontColor=#ffffff;strokeColor=#2D7600;gradientColor=default;swimlaneFillColor=light-dark(#FFFF33,#00A200);rounded=1;shadow=1;glass=1;swimlaneLine=1;gradientDirection=radial;strokeWidth=3;dashed=1;sketch=1;curveFitting=1;jiggle=2;" parent="WIyWlLk6GJQsqaUBKTNV-1" vertex="1">
          <mxGeometry x="180" y="132" width="288" height="96" as="geometry">
            <mxRectangle x="510" y="60" width="130" height="30" as="alternateBounds" />
          </mxGeometry>
        </mxCell>
        <mxCell id="F0146wAJavmaQIr5UsxC-5" value="&lt;font face=&quot;Times New Roman&quot; style=&quot;font-size: 14px;&quot;&gt;Rainfall (Rf),&amp;nbsp;&lt;/font&gt;&lt;div&gt;&lt;font face=&quot;Times New Roman&quot; style=&quot;font-size: 14px;&quot;&gt;Maximum temperature (Tmax),&amp;nbsp;&lt;/font&gt;&lt;div&gt;&lt;font face=&quot;Times New Roman&quot; style=&quot;font-size: 14px;&quot;&gt;Minimum temperature (Tmin)&amp;nbsp;&lt;/font&gt;&lt;/div&gt;&lt;/div&gt;" style="text;html=1;align=center;verticalAlign=middle;resizable=0;points=[];autosize=1;strokeColor=#BD7000;fillColor=none;fontSize=16;dashed=1;dashPattern=1 1;fontColor=#000000;" vertex="1" parent="UrOnI7uU73F_u0JW5zdo-0">
          <mxGeometry x="33.99000000000001" y="24" width="216" height="72" as="geometry" />
        </mxCell>
        <mxCell id="UrOnI7uU73F_u0JW5zdo-12" style="edgeStyle=none;curved=1;rounded=0;orthogonalLoop=1;jettySize=auto;html=1;exitX=0.75;exitY=0;exitDx=0;exitDy=0;fontSize=12;startSize=8;endSize=8;" parent="WIyWlLk6GJQsqaUBKTNV-1" edge="1">
          <mxGeometry relative="1" as="geometry">
            <mxPoint x="207.5" y="573" as="sourcePoint" />
            <mxPoint x="207.5" y="573" as="targetPoint" />
          </mxGeometry>
        </mxCell>
        <mxCell id="UrOnI7uU73F_u0JW5zdo-13" value="" style="strokeWidth=2;html=1;shape=mxgraph.flowchart.annotation_2;align=left;labelPosition=right;pointerEvents=1;rotation=90;strokeColor=#FFFF00;gradientColor=none;" parent="WIyWlLk6GJQsqaUBKTNV-1" vertex="1">
          <mxGeometry x="283.01" y="216" width="84" height="327.71" as="geometry" />
        </mxCell>
        <mxCell id="UrOnI7uU73F_u0JW5zdo-14" value="Nonparametric trend analysis" style="swimlane;whiteSpace=wrap;html=1;startSize=20;fillColor=#cdeb8b;strokeColor=#36393d;" parent="WIyWlLk6GJQsqaUBKTNV-1" vertex="1">
          <mxGeometry x="72" y="732" width="312" height="99" as="geometry">
            <mxRectangle x="510" y="60" width="130" height="30" as="alternateBounds" />
          </mxGeometry>
        </mxCell>
        <mxCell id="UrOnI7uU73F_u0JW5zdo-43" value="" style="whiteSpace=wrap;html=1;" parent="UrOnI7uU73F_u0JW5zdo-14" vertex="1">
          <mxGeometry y="25.5" width="300" height="61.5" as="geometry" />
        </mxCell>
        <mxCell id="F0146wAJavmaQIr5UsxC-0" value="&lt;div&gt;&lt;br&gt;&lt;/div&gt;&lt;div&gt;&lt;ul style=&quot;color: rgb(0, 0, 0); text-wrap-mode: nowrap; font-size: 16px; text-align: left; background-color: rgb(251, 251, 251);&quot;&gt;&lt;li&gt;&lt;span style=&quot;font-size: 13px; background-color: transparent; color: light-dark(rgb(0, 0, 0), rgb(255, 255, 255));&quot;&gt;Trend analysis using Modified Mann-Kendall&lt;/span&gt;&lt;/li&gt;&lt;li&gt;&lt;span style=&quot;font-size: 13px; background-color: transparent; color: light-dark(rgb(0, 0, 0), rgb(255, 255, 255));&quot;&gt;Estimation of magnitude using Sen&#39;s slope&lt;/span&gt;&lt;/li&gt;&lt;/ul&gt;&lt;br&gt;&lt;/div&gt;" style="rounded=1;whiteSpace=wrap;html=1;" vertex="1" parent="UrOnI7uU73F_u0JW5zdo-14">
          <mxGeometry x="-6" y="25.5" width="312" height="60" as="geometry" />
        </mxCell>
        <mxCell id="UrOnI7uU73F_u0JW5zdo-17" value="&lt;font face=&quot;Times New Roman&quot; style=&quot;font-size: 17px;&quot;&gt;Data processing&lt;/font&gt;" style="swimlane;whiteSpace=wrap;html=1;startSize=24;fillStyle=solid;gradientColor=#3399FF;swimlaneFillColor=#D5E8D4;strokeColor=#006666;dashed=1;strokeWidth=2;rounded=1;sketch=1;curveFitting=1;jiggle=2;shadow=1;glass=1;" parent="WIyWlLk6GJQsqaUBKTNV-1" vertex="1">
          <mxGeometry x="180" y="264" width="290.01" height="72" as="geometry">
            <mxRectangle x="510" y="60" width="130" height="30" as="alternateBounds" />
          </mxGeometry>
        </mxCell>
        <mxCell id="UrOnI7uU73F_u0JW5zdo-35" value="&lt;font face=&quot;Times New Roman&quot; style=&quot;font-size: 14px;&quot;&gt;Extraction /&amp;nbsp;&lt;span style=&quot;color: light-dark(rgb(0, 0, 0), rgb(255, 255, 255));&quot;&gt;Cleaning /&amp;nbsp;&lt;/span&gt;&lt;span style=&quot;color: light-dark(rgb(0, 0, 0), rgb(255, 255, 255));&quot;&gt;Conversion&lt;/span&gt;&lt;/font&gt;" style="text;html=1;align=center;verticalAlign=middle;resizable=0;points=[];autosize=1;strokeColor=default;fillColor=none;fontSize=16;strokeWidth=0;rounded=1;sketch=1;curveFitting=1;jiggle=2;glass=1;shadow=1;" parent="UrOnI7uU73F_u0JW5zdo-17" vertex="1">
          <mxGeometry x="11.000000000000005" y="25" width="228" height="36" as="geometry" />
        </mxCell>
        <mxCell id="UrOnI7uU73F_u0JW5zdo-19" value="&lt;font style=&quot;&quot; face=&quot;Times New Roman&quot;&gt;&lt;font style=&quot;font-size: 22px;&quot;&gt;&lt;b style=&quot;&quot;&gt;Gridded climate data&lt;/b&gt;&lt;/font&gt;&lt;br&gt;&lt;span style=&quot;font-size: 16px;&quot;&gt;&lt;b&gt;1972-2024 (53 years)&lt;/b&gt;&lt;/span&gt;&lt;br&gt;&lt;b style=&quot;&quot;&gt;&lt;font style=&quot;font-size: 14px;&quot;&gt;From Indian Meteorological Department&lt;/font&gt;&lt;/b&gt;&lt;/font&gt;" style="shape=process;backgroundOutline=1;fillColor=default;rounded=1;glass=1;shadow=1;strokeColor=#3333FF;gradientColor=#666666;fontColor=light-dark(#000099,#DADAFF);fontStyle=0;labelBackgroundColor=none;labelBorderColor=none;textShadow=0;whiteSpace=wrap;html=1;gradientDirection=east;strokeWidth=4;perimeterSpacing=4;dashed=1;" parent="WIyWlLk6GJQsqaUBKTNV-1" vertex="1">
          <mxGeometry x="155.99" y="24" width="332.01" height="84" as="geometry" />
        </mxCell>
        <mxCell id="UrOnI7uU73F_u0JW5zdo-31" style="edgeStyle=none;curved=1;rounded=0;orthogonalLoop=1;jettySize=auto;html=1;entryX=0.5;entryY=0;entryDx=0;entryDy=0;fontSize=12;startSize=8;endSize=8;" parent="WIyWlLk6GJQsqaUBKTNV-1" edge="1">
          <mxGeometry relative="1" as="geometry">
            <mxPoint x="482" y="804" as="sourcePoint" />
          </mxGeometry>
        </mxCell>
        <mxCell id="UrOnI7uU73F_u0JW5zdo-10" value="Forecasting" style="swimlane;whiteSpace=wrap;html=1;startSize=20;fillColor=#cce5ff;strokeColor=#36393d;" parent="WIyWlLk6GJQsqaUBKTNV-1" vertex="1">
          <mxGeometry x="432" y="720" width="312" height="82" as="geometry">
            <mxRectangle x="510" y="60" width="130" height="30" as="alternateBounds" />
          </mxGeometry>
        </mxCell>
        <mxCell id="F0146wAJavmaQIr5UsxC-1" value="&#xa;&lt;ul style=&quot;forced-color-adjust: none; color: rgb(0, 0, 0); font-family: Helvetica; font-style: normal; font-variant-ligatures: normal; font-variant-caps: normal; font-weight: 400; letter-spacing: normal; orphans: 2; text-indent: 0px; text-transform: none; widows: 2; word-spacing: 0px; -webkit-text-stroke-width: 0px; white-space: nowrap; background-color: rgb(251, 251, 251); text-decoration-thickness: initial; text-decoration-style: initial; text-decoration-color: initial; font-size: 16px; text-align: left;&quot;&gt;&lt;li style=&quot;forced-color-adjust: none;&quot;&gt;&lt;span style=&quot;forced-color-adjust: none; font-size: 13px; background-color: transparent; color: light-dark(rgb(0, 0, 0), rgb(255, 255, 255));&quot;&gt;From 2025-2054 (30 years)&lt;/span&gt;&lt;/li&gt;&lt;li style=&quot;forced-color-adjust: none;&quot;&gt;&lt;font style=&quot;forced-color-adjust: none; font-size: 13px; background-color: transparent; color: light-dark(rgb(0, 0, 0), rgb(255, 255, 255));&quot;&gt;Using hybrid deep learning algorithm&amp;nbsp;&lt;/font&gt;&lt;font style=&quot;forced-color-adjust: none; font-size: 13px; background-color: transparent; color: light-dark(rgb(0, 0, 0), rgb(255, 255, 255));&quot;&gt;CNN-LSTM&lt;/font&gt;&lt;/li&gt;&lt;/ul&gt;&#xa;&#xa;" style="rounded=1;whiteSpace=wrap;html=1;" vertex="1" parent="UrOnI7uU73F_u0JW5zdo-10">
          <mxGeometry y="17.25" width="315.34" height="64.5" as="geometry" />
        </mxCell>
        <mxCell id="UrOnI7uU73F_u0JW5zdo-41" value="&lt;div&gt;&lt;span style=&quot;font-size: 13px;&quot;&gt;&lt;br&gt;&lt;/span&gt;&lt;/div&gt;" style="text;html=1;align=left;verticalAlign=middle;resizable=0;points=[];autosize=1;strokeColor=none;fillColor=none;fontSize=16;" parent="WIyWlLk6GJQsqaUBKTNV-1" vertex="1">
          <mxGeometry x="336" y="583.5" width="24" height="36" as="geometry" />
        </mxCell>
      </root>
    </mxGraphModel>
  </diagram>
</mxfile>
